<?xml version="1.0" encoding="UTF-8" standalone="no"?>
<svg
   width="637.90515"
   height="106"
   version="1.1"
   id="svg2199"
   xmlns="http://www.w3.org/2000/svg"
   xmlns:svg="http://www.w3.org/2000/svg">
  <defs
     id="defs2203" />
  <g
     fill="none"
     id="g2197"
     transform="matrix(3.6651014,0,0,3.6651014,4.8387355,4.6334899)">
    <path
       d="m 22.915,10.723 a 1.22,1.22 0 0 1 1.22,1.214 v 12.705 c 0,0.669 -0.541,1.215 -1.214,1.215 H 1.259 A 1.215,1.215 0 0 1 0.044,24.642 V 1.601 c 0,-0.668 0.541,-1.214 1.216,-1.214 h 2.633 c 0.668,0 1.214,0.54 1.214,1.214 V 9.58 a 1.231,1.231 0 0 0 1.066,1.143 h 1.97 C 8.74,10.668 9.237,10.182 9.27,9.58 V 1.6 c 0,-0.668 0.54,-1.214 1.214,-1.214 h 2.633 c 0.668,0 1.215,0.54 1.215,1.214 v 7.896 c 0,0.624 0.458,1.154 1.06,1.226 h 7.524 z m -3.467,8.713 V 16.95 c 0,-0.668 -0.54,-1.215 -1.214,-1.215 H 15.6 c -0.668,0 -1.215,0.541 -1.215,1.215 v 2.485 c 0,0.668 0.541,1.214 1.215,1.214 h 2.633 c 0.668,0 1.214,-0.54 1.214,-1.214 z m 22.22,6.444 -1.259,-5.876 a 21.833,21.833 0 0 0 -0.596,-2.33 c -0.215,-0.679 -0.52,-1.248 -0.9,-1.711 -0.386,-0.464 -0.889,-0.812 -1.513,-1.055 -0.623,-0.237 -1.44,-0.359 -2.45,-0.359 h -2.645 v 11.33 H 29.424 V 0.431 h 6.304 c 1.043,0 2.053,0.11 3.036,0.325 0.977,0.216 1.844,0.575 2.595,1.072 a 5.595,5.595 0 0 1 1.81,1.982 c 0.458,0.823 0.685,1.833 0.685,3.037 0,0.922 -0.11,1.739 -0.326,2.44 a 5.084,5.084 0 0 1 -0.972,1.817 c -0.43,0.508 -0.971,0.938 -1.611,1.286 -0.64,0.348 -1.397,0.63 -2.258,0.845 v 0.072 c 0.839,0.215 1.512,0.491 2.015,0.817 0.502,0.331 0.905,0.723 1.209,1.182 0.298,0.458 0.53,0.982 0.695,1.573 0.166,0.591 0.32,1.27 0.475,2.027 l 1.468,6.973 H 41.668 Z M 40.967,7.15 c 0,-1.054 -0.188,-1.877 -0.558,-2.457 A 3.387,3.387 0 0 0 38.935,3.407 C 38.322,3.131 37.627,2.965 36.848,2.91 A 33.901,33.901 0 0 0 34.453,2.827 H 32.31 v 9.331 h 1.584 c 0.867,0 1.717,-0.06 2.567,-0.187 a 6.89,6.89 0 0 0 2.269,-0.73 4.297,4.297 0 0 0 1.623,-1.523 C 40.756,9.061 40.966,8.205 40.966,7.15 Z M 57.82,25.88 v -2.325 h -0.071 a 3.97,3.97 0 0 1 -0.972,1.198 c -0.409,0.342 -0.856,0.63 -1.342,0.856 a 7.332,7.332 0 0 1 -1.529,0.513 7.268,7.268 0 0 1 -1.54,0.171 c -0.756,0 -1.43,-0.116 -2.015,-0.353 A 3.92,3.92 0 0 1 48.877,24.952 4.291,4.291 0 0 1 47.967,23.4 c -0.21,-0.607 -0.315,-1.28 -0.315,-2.026 0,-0.674 0.132,-1.27 0.397,-1.8 0.265,-0.53 0.613,-0.994 1.055,-1.397 a 6.613,6.613 0 0 1 1.523,-1.038 c 0.58,-0.293 1.176,-0.525 1.794,-0.702 a 13.376,13.376 0 0 1 3.61,-0.525 c 0.299,0 0.591,-0.005 0.867,-0.01 0.276,-0.006 0.563,-0.039 0.867,-0.1 v -0.375 c 0,-0.646 -0.011,-1.292 -0.028,-1.938 a 5.16,5.16 0 0 0 -0.325,-1.74 2.68,2.68 0 0 0 -0.972,-1.247 c -0.447,-0.315 -1.115,-0.475 -1.987,-0.475 -0.519,0 -0.983,0.05 -1.397,0.144 a 2.908,2.908 0 0 0 -1.07,0.463 2.429,2.429 0 0 0 -0.73,0.862 c -0.187,0.359 -0.314,0.8 -0.386,1.325 h -2.793 c 0.01,-0.89 0.199,-1.64 0.568,-2.258 a 4.63,4.63 0 0 1 1.43,-1.513 6.262,6.262 0 0 1 2.01,-0.856 9.677,9.677 0 0 1 2.296,-0.27 c 1.993,0 3.472,0.452 4.438,1.352 0.967,0.9 1.452,2.33 1.452,4.285 v 12.318 h -2.45 z m -1.55,-7.963 c -0.564,0 -1.182,0.061 -1.845,0.188 a 7.07,7.07 0 0 0 -1.866,0.624 c -0.58,0.293 -1.06,0.668 -1.451,1.143 -0.392,0.475 -0.586,1.06 -0.586,1.756 0,0.745 0.227,1.358 0.674,1.838 0.453,0.48 1.049,0.718 1.794,0.718 0.442,0 0.872,-0.066 1.28,-0.21 a 4.57,4.57 0 0 0 1.143,-0.568 4.9,4.9 0 0 0 0.966,-0.867 c 0.288,-0.337 0.525,-0.702 0.702,-1.1 0.143,-0.325 0.259,-0.623 0.353,-0.888 A 5.766,5.766 0 0 0 57.732,18.9 c 0.011,-0.287 0.017,-0.618 0.017,-0.988 h -1.48 v 0.005 z m 22.975,-0.629 c 0,1.154 -0.116,2.27 -0.353,3.351 -0.238,1.083 -0.63,2.043 -1.182,2.883 a 6.183,6.183 0 0 1 -2.17,2.015 c -0.894,0.502 -2.009,0.756 -3.34,0.756 -1.236,0 -2.274,-0.193 -3.113,-0.574 -0.839,-0.386 -1.518,-0.916 -2.026,-1.601 -0.507,-0.685 -0.877,-1.49 -1.098,-2.424 A 13.128,13.128 0 0 1 65.632,18.657 V 0.431 h 2.5 v 10.805 h 0.089 a 4.29,4.29 0 0 1 0.7,-1.402 4.78,4.78 0 0 1 1.1,-1.038 5.031,5.031 0 0 1 1.385,-0.646 5.492,5.492 0 0 1 1.568,-0.227 c 0.839,0 1.579,0.133 2.213,0.403 0.635,0.271 1.187,0.64 1.645,1.11 0.464,0.47 0.85,1.01 1.16,1.63 a 9.8,9.8 0 0 1 0.74,1.97 c 0.182,0.696 0.309,1.408 0.386,2.137 0.088,0.723 0.127,1.43 0.127,2.115 z m -2.882,-0.066 a 18.4,18.4 0 0 0 -0.06,-1.375 16.056,16.056 0 0 0 -0.216,-1.563 c -0.1,-0.535 -0.243,-1.055 -0.425,-1.562 a 5.438,5.438 0 0 0 -0.701,-1.359 3.458,3.458 0 0 0 -1.043,-0.96 c -0.409,-0.249 -0.884,-0.37 -1.425,-0.37 -0.574,0 -1.087,0.132 -1.529,0.397 a 4.058,4.058 0 0 0 -1.153,1.044 c -0.326,0.43 -0.597,0.922 -0.812,1.474 a 11.448,11.448 0 0 0 -0.513,1.69 14.496,14.496 0 0 0 -0.27,1.689 14.994,14.994 0 0 0 -0.084,1.474 c 0,0.674 0.05,1.38 0.144,2.12 0.094,0.746 0.287,1.436 0.568,2.071 0.282,0.635 0.685,1.16 1.21,1.574 0.524,0.414 1.214,0.618 2.08,0.618 0.575,0 1.083,-0.11 1.524,-0.326 a 3.555,3.555 0 0 0 1.126,-0.872 c 0.315,-0.364 0.569,-0.79 0.773,-1.27 0.204,-0.48 0.365,-0.977 0.486,-1.49 0.121,-0.514 0.204,-1.033 0.254,-1.547 0.044,-0.513 0.066,-1 0.066,-1.457 z m 20.619,0.066 c 0,1.154 -0.116,2.27 -0.354,3.351 -0.237,1.083 -0.629,2.043 -1.18,2.883 a 6.183,6.183 0 0 1 -2.17,2.015 c -0.895,0.502 -2.01,0.756 -3.34,0.756 -1.237,0 -2.275,-0.193 -3.114,-0.574 C 85.985,25.333 85.306,24.803 84.798,24.118 84.29,23.433 83.921,22.628 83.7,21.694 A 13.128,13.128 0 0 1 83.369,18.657 V 0.431 h 2.5 v 10.805 h 0.089 a 4.29,4.29 0 0 1 0.7,-1.402 4.78,4.78 0 0 1 1.1,-1.038 5.018,5.018 0 0 1 1.385,-0.646 5.492,5.492 0 0 1 1.568,-0.227 c 0.839,0 1.578,0.133 2.213,0.403 0.635,0.271 1.187,0.64 1.645,1.11 0.464,0.47 0.85,1.01 1.16,1.63 a 9.8,9.8 0 0 1 0.74,1.97 c 0.182,0.696 0.308,1.408 0.386,2.137 0.088,0.723 0.127,1.43 0.127,2.115 z M 94.1,17.222 a 18.4,18.4 0 0 0 -0.06,-1.375 16.056,16.056 0 0 0 -0.216,-1.563 c -0.1,-0.535 -0.243,-1.055 -0.425,-1.562 a 5.438,5.438 0 0 0 -0.701,-1.359 3.458,3.458 0 0 0 -1.043,-0.96 c -0.409,-0.249 -0.884,-0.37 -1.425,-0.37 -0.574,0 -1.087,0.132 -1.529,0.397 a 4.058,4.058 0 0 0 -1.154,1.044 c -0.325,0.43 -0.596,0.922 -0.811,1.474 a 11.448,11.448 0 0 0 -0.513,1.69 14.496,14.496 0 0 0 -0.27,1.689 14.994,14.994 0 0 0 -0.084,1.474 c 0,0.674 0.05,1.38 0.144,2.12 0.094,0.746 0.287,1.436 0.568,2.071 0.282,0.635 0.685,1.16 1.21,1.574 0.524,0.414 1.214,0.618 2.08,0.618 0.575,0 1.083,-0.11 1.524,-0.326 a 3.555,3.555 0 0 0 1.126,-0.872 c 0.315,-0.364 0.569,-0.79 0.773,-1.27 a 9.3,9.3 0 0 0 0.486,-1.49 c 0.121,-0.514 0.204,-1.033 0.254,-1.547 0.044,-0.513 0.066,-1 0.066,-1.457 z M 101.41,3.744 V 0.43 h 3.311 v 3.313 h -3.312 z m 0.397,22.135 V 8.321 h 2.5 V 25.879 Z M 114.194,10.425 V 21.23 c 0,0.939 0.227,1.662 0.685,2.181 0.458,0.52 1.187,0.773 2.186,0.773 a 4,4 0 0 0 0.883,-0.083 6.9,6.9 0 0 0 0.834,-0.26 v 2.254 c -0.37,0.06 -0.74,0.11 -1.11,0.143 -0.364,0.039 -0.734,0.055 -1.11,0.055 -0.828,0 -1.545,-0.077 -2.152,-0.232 -0.608,-0.154 -1.116,-0.408 -1.524,-0.767 -0.409,-0.353 -0.712,-0.817 -0.91,-1.397 -0.2,-0.58 -0.299,-1.292 -0.299,-2.142 v -11.33 h -2.865 v -2.11 h 2.865 V 4.23 l 2.5,-1.584 v 5.67 h 4.737 v 2.11 h -4.72 z"
       fill="#ff6600"
       id="path2193" />
    <path
       fill="#b8b8b8"
       d="M 143.49,25.949 V 3.559 h -0.07 l -7.492,22.384 h -2.843 L 125.61,3.559 h -0.088 V 25.943 H 122.95 V 0.5 h 4.322 l 7.22,21.65 h 0.072 L 141.802,0.5 h 4.267 v 25.449 z m 16.766,0.008 c -1.187,0 -2.241,-0.177 -3.152,-0.53 a 7.682,7.682 0 0 1 -2.396,-1.458 8.63,8.63 0 0 1 -1.728,-2.17 13.079,13.079 0 0 1 -1.131,-2.655 17.557,17.557 0 0 1 -0.624,-2.938 24.284,24.284 0 0 1 -0.188,-3.015 c 0,-1.054 0.055,-2.109 0.171,-3.158 a 19.3,19.3 0 0 1 0.574,-3.037 c 0.27,-0.977 0.635,-1.877 1.088,-2.722 a 8.07,8.07 0 0 1 1.728,-2.186 c 0.695,-0.619 1.523,-1.105 2.473,-1.458 0.955,-0.353 2.07,-0.53 3.34,-0.53 1.236,0 2.318,0.182 3.251,0.547 a 7.407,7.407 0 0 1 2.396,1.496 c 0.668,0.63 1.22,1.37 1.656,2.225 0.436,0.85 0.784,1.761 1.038,2.728 0.254,0.966 0.43,1.97 0.53,3.014 0.1,1.044 0.155,2.071 0.155,3.081 a 29.544,29.544 0 0 1 -0.243,3.655 21.514,21.514 0 0 1 -0.376,2.071 c -0.16,0.696 -0.37,1.353 -0.624,1.966 a 8.658,8.658 0 0 1 -0.91,1.673 4.27,4.27 0 0 1 -1.231,1.187 l 0.071,0.072 5.24,-0.326 v 2.468 z m 6.05,-12.804 c 0,-0.663 -0.022,-1.386 -0.06,-2.17 a 20.152,20.152 0 0 0 -0.27,-2.358 14.34,14.34 0 0 0 -0.602,-2.286 7.21,7.21 0 0 0 -1.055,-1.965 5.066,5.066 0 0 0 -1.612,-1.37 c -0.635,-0.342 -1.402,-0.513 -2.29,-0.513 -0.94,0 -1.74,0.165 -2.408,0.497 a 5.144,5.144 0 0 0 -1.694,1.33 6.98,6.98 0 0 0 -1.121,1.927 13.39,13.39 0 0 0 -0.651,2.28 c -0.15,0.796 -0.249,1.591 -0.299,2.386 -0.05,0.8 -0.071,1.546 -0.071,2.242 0,0.662 0.027,1.375 0.088,2.142 0.06,0.768 0.166,1.535 0.326,2.308 0.154,0.768 0.375,1.513 0.657,2.23 a 7.184,7.184 0 0 0 1.093,1.911 c 0.447,0.552 0.988,0.994 1.623,1.325 0.635,0.332 1.39,0.497 2.252,0.497 0.972,0 1.8,-0.154 2.479,-0.469 a 4.952,4.952 0 0 0 1.694,-1.259 6.071,6.071 0 0 0 1.066,-1.828 c 0.26,-0.69 0.452,-1.424 0.58,-2.197 0.126,-0.773 0.204,-1.563 0.231,-2.358 0.028,-0.806 0.044,-1.573 0.044,-2.302 z"
       id="path2195" />
  </g>
  <g
     fill="none"
     id="g2274"
     transform="matrix(3.6651014,0,0,3.6651014,4.8387355,4.6334899)">
    <path
       d="m 22.915,10.723 a 1.22,1.22 0 0 1 1.22,1.214 v 12.705 c 0,0.669 -0.541,1.215 -1.214,1.215 H 1.259 A 1.215,1.215 0 0 1 0.044,24.642 V 1.601 c 0,-0.668 0.541,-1.214 1.216,-1.214 h 2.633 c 0.668,0 1.214,0.54 1.214,1.214 V 9.58 a 1.231,1.231 0 0 0 1.066,1.143 h 1.97 C 8.74,10.668 9.237,10.182 9.27,9.58 V 1.6 c 0,-0.668 0.54,-1.214 1.214,-1.214 h 2.633 c 0.668,0 1.215,0.54 1.215,1.214 v 7.896 c 0,0.624 0.458,1.154 1.06,1.226 h 7.524 z m -3.467,8.713 V 16.95 c 0,-0.668 -0.54,-1.215 -1.214,-1.215 H 15.6 c -0.668,0 -1.215,0.541 -1.215,1.215 v 2.485 c 0,0.668 0.541,1.214 1.215,1.214 h 2.633 c 0.668,0 1.214,-0.54 1.214,-1.214 z m 22.22,6.444 -1.259,-5.876 a 21.833,21.833 0 0 0 -0.596,-2.33 c -0.215,-0.679 -0.52,-1.248 -0.9,-1.711 -0.386,-0.464 -0.889,-0.812 -1.513,-1.055 -0.623,-0.237 -1.44,-0.359 -2.45,-0.359 h -2.645 v 11.33 H 29.424 V 0.431 h 6.304 c 1.043,0 2.053,0.11 3.036,0.325 0.977,0.216 1.844,0.575 2.595,1.072 a 5.595,5.595 0 0 1 1.81,1.982 c 0.458,0.823 0.685,1.833 0.685,3.037 0,0.922 -0.11,1.739 -0.326,2.44 a 5.084,5.084 0 0 1 -0.972,1.817 c -0.43,0.508 -0.971,0.938 -1.611,1.286 -0.64,0.348 -1.397,0.63 -2.258,0.845 v 0.072 c 0.839,0.215 1.512,0.491 2.015,0.817 0.502,0.331 0.905,0.723 1.209,1.182 0.298,0.458 0.53,0.982 0.695,1.573 0.166,0.591 0.32,1.27 0.475,2.027 l 1.468,6.973 H 41.668 Z M 40.967,7.15 c 0,-1.054 -0.188,-1.877 -0.558,-2.457 A 3.387,3.387 0 0 0 38.935,3.407 C 38.322,3.131 37.627,2.965 36.848,2.91 A 33.901,33.901 0 0 0 34.453,2.827 H 32.31 v 9.331 h 1.584 c 0.867,0 1.717,-0.06 2.567,-0.187 a 6.89,6.89 0 0 0 2.269,-0.73 4.297,4.297 0 0 0 1.623,-1.523 C 40.756,9.061 40.966,8.205 40.966,7.15 Z M 57.82,25.88 v -2.325 h -0.071 a 3.97,3.97 0 0 1 -0.972,1.198 c -0.409,0.342 -0.856,0.63 -1.342,0.856 a 7.332,7.332 0 0 1 -1.529,0.513 7.268,7.268 0 0 1 -1.54,0.171 c -0.756,0 -1.43,-0.116 -2.015,-0.353 A 3.92,3.92 0 0 1 48.877,24.952 4.291,4.291 0 0 1 47.967,23.4 c -0.21,-0.607 -0.315,-1.28 -0.315,-2.026 0,-0.674 0.132,-1.27 0.397,-1.8 0.265,-0.53 0.613,-0.994 1.055,-1.397 a 6.613,6.613 0 0 1 1.523,-1.038 c 0.58,-0.293 1.176,-0.525 1.794,-0.702 a 13.376,13.376 0 0 1 3.61,-0.525 c 0.299,0 0.591,-0.005 0.867,-0.01 0.276,-0.006 0.563,-0.039 0.867,-0.1 v -0.375 c 0,-0.646 -0.011,-1.292 -0.028,-1.938 a 5.16,5.16 0 0 0 -0.325,-1.74 2.68,2.68 0 0 0 -0.972,-1.247 c -0.447,-0.315 -1.115,-0.475 -1.987,-0.475 -0.519,0 -0.983,0.05 -1.397,0.144 a 2.908,2.908 0 0 0 -1.07,0.463 2.429,2.429 0 0 0 -0.73,0.862 c -0.187,0.359 -0.314,0.8 -0.386,1.325 h -2.793 c 0.01,-0.89 0.199,-1.64 0.568,-2.258 a 4.63,4.63 0 0 1 1.43,-1.513 6.262,6.262 0 0 1 2.01,-0.856 9.677,9.677 0 0 1 2.296,-0.27 c 1.993,0 3.472,0.452 4.438,1.352 0.967,0.9 1.452,2.33 1.452,4.285 v 12.318 h -2.45 z m -1.55,-7.963 c -0.564,0 -1.182,0.061 -1.845,0.188 a 7.07,7.07 0 0 0 -1.866,0.624 c -0.58,0.293 -1.06,0.668 -1.451,1.143 -0.392,0.475 -0.586,1.06 -0.586,1.756 0,0.745 0.227,1.358 0.674,1.838 0.453,0.48 1.049,0.718 1.794,0.718 0.442,0 0.872,-0.066 1.28,-0.21 a 4.57,4.57 0 0 0 1.143,-0.568 4.9,4.9 0 0 0 0.966,-0.867 c 0.288,-0.337 0.525,-0.702 0.702,-1.1 0.143,-0.325 0.259,-0.623 0.353,-0.888 A 5.766,5.766 0 0 0 57.732,18.9 c 0.011,-0.287 0.017,-0.618 0.017,-0.988 h -1.48 v 0.005 z m 22.975,-0.629 c 0,1.154 -0.116,2.27 -0.353,3.351 -0.238,1.083 -0.63,2.043 -1.182,2.883 a 6.183,6.183 0 0 1 -2.17,2.015 c -0.894,0.502 -2.009,0.756 -3.34,0.756 -1.236,0 -2.274,-0.193 -3.113,-0.574 -0.839,-0.386 -1.518,-0.916 -2.026,-1.601 -0.507,-0.685 -0.877,-1.49 -1.098,-2.424 A 13.128,13.128 0 0 1 65.632,18.657 V 0.431 h 2.5 v 10.805 h 0.089 a 4.29,4.29 0 0 1 0.7,-1.402 4.78,4.78 0 0 1 1.1,-1.038 5.031,5.031 0 0 1 1.385,-0.646 5.492,5.492 0 0 1 1.568,-0.227 c 0.839,0 1.579,0.133 2.213,0.403 0.635,0.271 1.187,0.64 1.645,1.11 0.464,0.47 0.85,1.01 1.16,1.63 a 9.8,9.8 0 0 1 0.74,1.97 c 0.182,0.696 0.309,1.408 0.386,2.137 0.088,0.723 0.127,1.43 0.127,2.115 z m -2.882,-0.066 a 18.4,18.4 0 0 0 -0.06,-1.375 16.056,16.056 0 0 0 -0.216,-1.563 c -0.1,-0.535 -0.243,-1.055 -0.425,-1.562 a 5.438,5.438 0 0 0 -0.701,-1.359 3.458,3.458 0 0 0 -1.043,-0.96 c -0.409,-0.249 -0.884,-0.37 -1.425,-0.37 -0.574,0 -1.087,0.132 -1.529,0.397 a 4.058,4.058 0 0 0 -1.153,1.044 c -0.326,0.43 -0.597,0.922 -0.812,1.474 a 11.448,11.448 0 0 0 -0.513,1.69 14.496,14.496 0 0 0 -0.27,1.689 14.994,14.994 0 0 0 -0.084,1.474 c 0,0.674 0.05,1.38 0.144,2.12 0.094,0.746 0.287,1.436 0.568,2.071 0.282,0.635 0.685,1.16 1.21,1.574 0.524,0.414 1.214,0.618 2.08,0.618 0.575,0 1.083,-0.11 1.524,-0.326 a 3.555,3.555 0 0 0 1.126,-0.872 c 0.315,-0.364 0.569,-0.79 0.773,-1.27 0.204,-0.48 0.365,-0.977 0.486,-1.49 0.121,-0.514 0.204,-1.033 0.254,-1.547 0.044,-0.513 0.066,-1 0.066,-1.457 z m 20.619,0.066 c 0,1.154 -0.116,2.27 -0.354,3.351 -0.237,1.083 -0.629,2.043 -1.18,2.883 a 6.183,6.183 0 0 1 -2.17,2.015 c -0.895,0.502 -2.01,0.756 -3.34,0.756 -1.237,0 -2.275,-0.193 -3.114,-0.574 C 85.985,25.333 85.306,24.803 84.798,24.118 84.29,23.433 83.921,22.628 83.7,21.694 A 13.128,13.128 0 0 1 83.369,18.657 V 0.431 h 2.5 v 10.805 h 0.089 a 4.29,4.29 0 0 1 0.7,-1.402 4.78,4.78 0 0 1 1.1,-1.038 5.018,5.018 0 0 1 1.385,-0.646 5.492,5.492 0 0 1 1.568,-0.227 c 0.839,0 1.578,0.133 2.213,0.403 0.635,0.271 1.187,0.64 1.645,1.11 0.464,0.47 0.85,1.01 1.16,1.63 a 9.8,9.8 0 0 1 0.74,1.97 c 0.182,0.696 0.308,1.408 0.386,2.137 0.088,0.723 0.127,1.43 0.127,2.115 z M 94.1,17.222 a 18.4,18.4 0 0 0 -0.06,-1.375 16.056,16.056 0 0 0 -0.216,-1.563 c -0.1,-0.535 -0.243,-1.055 -0.425,-1.562 a 5.438,5.438 0 0 0 -0.701,-1.359 3.458,3.458 0 0 0 -1.043,-0.96 c -0.409,-0.249 -0.884,-0.37 -1.425,-0.37 -0.574,0 -1.087,0.132 -1.529,0.397 a 4.058,4.058 0 0 0 -1.154,1.044 c -0.325,0.43 -0.596,0.922 -0.811,1.474 a 11.448,11.448 0 0 0 -0.513,1.69 14.496,14.496 0 0 0 -0.27,1.689 14.994,14.994 0 0 0 -0.084,1.474 c 0,0.674 0.05,1.38 0.144,2.12 0.094,0.746 0.287,1.436 0.568,2.071 0.282,0.635 0.685,1.16 1.21,1.574 0.524,0.414 1.214,0.618 2.08,0.618 0.575,0 1.083,-0.11 1.524,-0.326 a 3.555,3.555 0 0 0 1.126,-0.872 c 0.315,-0.364 0.569,-0.79 0.773,-1.27 a 9.3,9.3 0 0 0 0.486,-1.49 c 0.121,-0.514 0.204,-1.033 0.254,-1.547 0.044,-0.513 0.066,-1 0.066,-1.457 z M 101.41,3.744 V 0.43 h 3.311 v 3.313 h -3.312 z m 0.397,22.135 V 8.321 h 2.5 V 25.879 Z M 114.194,10.425 V 21.23 c 0,0.939 0.227,1.662 0.685,2.181 0.458,0.52 1.187,0.773 2.186,0.773 a 4,4 0 0 0 0.883,-0.083 6.9,6.9 0 0 0 0.834,-0.26 v 2.254 c -0.37,0.06 -0.74,0.11 -1.11,0.143 -0.364,0.039 -0.734,0.055 -1.11,0.055 -0.828,0 -1.545,-0.077 -2.152,-0.232 -0.608,-0.154 -1.116,-0.408 -1.524,-0.767 -0.409,-0.353 -0.712,-0.817 -0.91,-1.397 -0.2,-0.58 -0.299,-1.292 -0.299,-2.142 v -11.33 h -2.865 v -2.11 h 2.865 V 4.23 l 2.5,-1.584 v 5.67 h 4.737 v 2.11 h -4.72 z"
       fill="#ff6600"
       id="path2270" />
    <path
       fill="#b8b8b8"
       d="M 143.49,25.949 V 3.559 h -0.07 l -7.492,22.384 h -2.843 L 125.61,3.559 h -0.088 V 25.943 H 122.95 V 0.5 h 4.322 l 7.22,21.65 h 0.072 L 141.802,0.5 h 4.267 v 25.449 z m 16.766,0.008 c -1.187,0 -2.241,-0.177 -3.152,-0.53 a 7.682,7.682 0 0 1 -2.396,-1.458 8.63,8.63 0 0 1 -1.728,-2.17 13.079,13.079 0 0 1 -1.131,-2.655 17.557,17.557 0 0 1 -0.624,-2.938 24.284,24.284 0 0 1 -0.188,-3.015 c 0,-1.054 0.055,-2.109 0.171,-3.158 a 19.3,19.3 0 0 1 0.574,-3.037 c 0.27,-0.977 0.635,-1.877 1.088,-2.722 a 8.07,8.07 0 0 1 1.728,-2.186 c 0.695,-0.619 1.523,-1.105 2.473,-1.458 0.955,-0.353 2.07,-0.53 3.34,-0.53 1.236,0 2.318,0.182 3.251,0.547 a 7.407,7.407 0 0 1 2.396,1.496 c 0.668,0.63 1.22,1.37 1.656,2.225 0.436,0.85 0.784,1.761 1.038,2.728 0.254,0.966 0.43,1.97 0.53,3.014 0.1,1.044 0.155,2.071 0.155,3.081 a 29.544,29.544 0 0 1 -0.243,3.655 21.514,21.514 0 0 1 -0.376,2.071 c -0.16,0.696 -0.37,1.353 -0.624,1.966 a 8.658,8.658 0 0 1 -0.91,1.673 4.27,4.27 0 0 1 -1.231,1.187 l 0.071,0.072 5.24,-0.326 v 2.468 z m 6.05,-12.804 c 0,-0.663 -0.022,-1.386 -0.06,-2.17 a 20.152,20.152 0 0 0 -0.27,-2.358 14.34,14.34 0 0 0 -0.602,-2.286 7.21,7.21 0 0 0 -1.055,-1.965 5.066,5.066 0 0 0 -1.612,-1.37 c -0.635,-0.342 -1.402,-0.513 -2.29,-0.513 -0.94,0 -1.74,0.165 -2.408,0.497 a 5.144,5.144 0 0 0 -1.694,1.33 6.98,6.98 0 0 0 -1.121,1.927 13.39,13.39 0 0 0 -0.651,2.28 c -0.15,0.796 -0.249,1.591 -0.299,2.386 -0.05,0.8 -0.071,1.546 -0.071,2.242 0,0.662 0.027,1.375 0.088,2.142 0.06,0.768 0.166,1.535 0.326,2.308 0.154,0.768 0.375,1.513 0.657,2.23 a 7.184,7.184 0 0 0 1.093,1.911 c 0.447,0.552 0.988,0.994 1.623,1.325 0.635,0.332 1.39,0.497 2.252,0.497 0.972,0 1.8,-0.154 2.479,-0.469 a 4.952,4.952 0 0 0 1.694,-1.259 6.071,6.071 0 0 0 1.066,-1.828 c 0.26,-0.69 0.452,-1.424 0.58,-2.197 0.126,-0.773 0.204,-1.563 0.231,-2.358 0.028,-0.806 0.044,-1.573 0.044,-2.302 z"
       id="path2272" />
  </g>
</svg>
