<?xml version="1.0" encoding="UTF-8" standalone="no"?>
<!-- Created with Inkscape (http://www.inkscape.org/) -->

<svg
   width="121.49836"
   height="106"
   viewBox="0 0 32.146442 28.045834"
   version="1.1"
   id="svg5"
   xmlns="http://www.w3.org/2000/svg"
   xmlns:svg="http://www.w3.org/2000/svg">
  <defs
     id="defs2" />
  <g
     id="layer1"
     transform="translate(-105.38284,-102.51272)">
    <g
       id="g1370"
       transform="matrix(0.46264883,0,0,0.46264883,43.709376,54.657013)">
      <path
         style="fill:#a0afd8;stroke-width:0.264583"
         d="m 148.81476,161.07705 c -10.49005,-0.30028 -12.65018,-0.55054 -12.65018,-1.46556 0,-0.53644 0.79072,-0.81388 2.97656,-1.0444 l 1.78594,-0.18835 v -6.99039 -6.9904 h 19.57917 19.57916 l -1.7e-4,-18.85157 -1.8e-4,-18.85156 7.14393,0.0744 7.14392,0.0744 v 25.85211 25.8521 l -5.09323,-5.02444 -5.09322,-5.02443 5.26681,5.33538 c 4.60541,4.66538 5.31508,5.28712 5.65117,4.95102 0.29597,-0.29596 0.75806,-0.34316 2.00923,-0.2052 2.04096,0.22503 2.81549,0.50872 2.81549,1.03123 0,0.67696 -1.17569,0.92525 -5.65544,1.19436 -5.7901,0.34783 -36.40238,0.53045 -45.45896,0.2712 z m -7.88768,-28.05619 v -7.67291 h 9.78958 9.78959 l -1.7e-4,-9.45886 -1.7e-4,-9.45885 7.28767,0.0744 c 5.43349,0.0554 7.3177,0.15642 7.40574,0.39687 0.0649,0.17739 0.14908,7.85325 0.18698,17.05748 l 0.0689,16.73497 -17.26407,-7e-5 -17.26406,-7e-5 z m 0,-19.18229 c 0,-4.14734 0.0884,-7.54062 0.19649,-7.54062 0.10807,0 3.17391,2.94679 6.81298,6.54843 l 6.61648,6.54844 -6.21555,-6.28385 -6.21555,-6.28386 h 6.81091 6.81091 v 6.95854 c 0,5.05943 0.0866,7.0452 0.3175,7.27605 0.24694,0.24694 -1.39936,0.3175 -7.40834,0.3175 h -7.72583 z"
         id="path1376" />
      <path
         style="fill:#002485;stroke-width:0.264583"
         d="m 145.425,160.25099 c -2.54662,-0.11306 -4.92102,-0.3143 -5.27645,-0.44721 l -0.64625,-0.24165 0.71239,-0.1788 0.71239,-0.1788 v -7.271 -7.271 h 19.51134 19.51134 l 7.61486,7.60677 c 4.67082,4.66586 7.6891,7.49287 7.80689,7.31216 0.10875,-0.16685 0.41734,-0.21412 0.71155,-0.10901 0.95165,0.33998 -0.70532,0.54739 -6.43296,0.80523 -6.42275,0.28913 -37.53389,0.27035 -44.2251,-0.0267 z m -4.49792,-27.23013 v -7.40833 h 9.8575 9.8575 l 7.40479,7.40833 7.40479,7.40834 h -17.26229 -17.26229 z m 0,-19.05 c 0,-4.07458 0.0706,-7.40833 0.15684,-7.40833 0.20906,0 14.76726,14.2552 14.88031,14.57061 0.0531,0.148 -2.92556,0.24606 -7.47448,0.24606 h -7.56267 z"
         id="path1374" />
      <path
         style="fill:#050506;stroke-width:0.264583"
         d="m 153.23021,160.0072 c -0.87313,-0.11329 -3.99852,-0.21891 -6.94532,-0.23471 l -5.35781,-0.0287 v -7.54063 -7.54062 h 19.38831 19.38831 l 7.4669,7.29821 c 4.10679,4.01402 7.4669,7.40062 7.4669,7.52578 0,0.12516 -2.53008,0.29231 -5.6224,0.37145 -10.14054,0.25953 -34.16279,0.3597 -35.78489,0.14923 z m -12.12674,-38.80439 c -0.24592,-0.24592 -0.2225,-14.64028 0.0238,-14.64028 0.11011,0 3.53236,3.33375 7.605,7.40833 l 7.40479,7.40834 h -7.42861 c -4.08574,0 -7.50799,-0.0794 -7.605,-0.17639 z"
         id="path1372" />
    </g>
  </g>
</svg>
